<svg xmlns="http://www.w3.org/2000/svg" version="1.1" xmlns:xlink="http://www.w3.org/1999/xlink" width="2000" height="804" viewBox="0 0 2000 804"><svg xml:space="preserve" width="2000" height="804" data-version="2" data-id="lg_oSTinbYFrJODYtIFYz" viewBox="0 0 804 804" x="0" y="0"><rect width="100%" height="100%" fill="transparent"></rect><circle r="50" opacity=".69" transform="translate(402 402)scale(7.8823)"></circle><path fill="#ffdc00" d="M441.907 260.43a39.497 39.497 0 0 1 39.497-39.474 39.443 39.443 0 0 1 39.42 39.474 39.412 39.412 0 0 1-39.42 39.42 39.466 39.466 0 0 1-39.497-39.42m132.326 253.193-59.97-3.806c-32.652-2.072-37.187-7.65-42.559-39.91-3.982-23.874-13.321-95.945-13.321-95.945-3.308-23.267-36.128-17.85-33.427 4.85 0 0 10.175 75.279 14.089 100.28 8.84 56.624 14.265 61.957 67.89 65.364l65.364 4.152c23.197 1.488 25.569-33.48 1.934-34.985m50.8-63.592a29.567 29.567 0 0 0-22.438-12.001l-28.83-2.778-18.847-1.811c-2.356-.23-4.865-.73-7.221-.407l-8.863-38.07-.768-3.851 7.582 3.967a22.932 22.932 0 0 0 12.761 2.51l58.129-5.541a22.822 22.822 0 0 0 20.55-24.878 22.868 22.868 0 0 0-24.878-20.55l-51.383 4.903-42.405-28.815a29.49 29.49 0 0 0-6.8-4.627s-.306-.207-.29-.13a29.375 29.375 0 0 0-18.44-2.38 31.078 31.078 0 0 0-17.62 10.53 28.262 28.262 0 0 0-4.228 7.151c-2.156 5.241-2.586 11.641-1.496 17.166l5.786 29.23 7.789 39.365s6.047 47.055 12.347 58.267c.299.537.66 1.09 1.128 1.65 6.584 7.911 13.275 13.973 24.18 14.503l76.997 3.745 46.227 78.74a22.683 22.683 0 0 0 15.44 7.082 22.814 22.814 0 0 0 17.664-38.483zm77.85-114.36a8.456 8.456 0 0 0-11.941-.515l-82.339 75.548a8.456 8.456 0 0 0 11.426 12.462l82.339-75.556c3.453-3.146 3.676-8.502.514-11.94m-547.397-35.814a39.404 39.404 0 0 0 39.42-39.42 39.435 39.435 0 0 0-39.42-39.473 39.497 39.497 0 0 0-39.496 39.473 39.489 39.489 0 0 0 39.496 39.42m92.837 213.766-59.97-3.806c-32.644-2.072-37.187-7.65-42.558-39.91-3.983-23.874-13.322-95.945-13.322-95.945-3.307-23.267-36.135-17.85-33.427 4.85 0 0 10.176 75.279 14.09 100.28 8.84 56.624 14.265 61.957 67.888 65.364l65.365 4.152c23.198 1.488 25.569-33.48 1.934-34.985m50.8-63.592a29.56 29.56 0 0 0-22.43-12.001l-28.83-2.778-18.855-1.811c-2.356-.23-4.865-.73-7.22-.407l-8.864-38.07-.76-3.851-.951-3.292-10.85-50.915a27.295 27.295 0 0 0-7.797-14.012l-.046-.17a29.597 29.597 0 0 0-3.776-2.862c-.483-.322-.997-.583-1.504-.874-.514-.292-.997-.63-1.527-.89 0 0-.307-.208-.292-.131-.176-.084-.36-.13-.537-.207a27.917 27.917 0 0 0-4.765-1.673 26.382 26.382 0 0 0-2.456-.537 28.915 28.915 0 0 0-10.681.046c-1.29.253-2.54.683-3.784 1.105l-.1.023c-.1.023-.176.069-.276.084-.33.115-.675.192-.997.323-14.043 3.721-22.96 17.88-19.906 32.237l16.115 75.609c1.85 12.968 6.607 43.556 11.526 52.319.3.537.66 1.09 1.128 1.65 6.584 7.911 13.275 13.974 24.187 14.503l76.998 3.745 46.227 78.74a22.683 22.683 0 0 0 15.44 7.083 22.806 22.806 0 0 0 17.656-38.484zm62.157-63.89H308.5v-21.595L254.024 396l54.476 31.454v-21.601h52.78v21.601L415.755 396l-54.475-31.455z" opacity=".95"></path></svg></svg>